<svg id="Layer_2" xmlns="http://www.w3.org/2000/svg" viewBox="0 0 293.06 108.39">
    <defs>
        <style>
            .cls-1 {
                fill: #212936
            }
        </style>
    </defs>
    <g id="Layer_1-2">
        <path class="cls-1"
            d="M140.03 45.16c-4.53 0-8.81 1.83-11.9 4.98V34.42h-6.2v46.4h6.2v-4.11c3.05 3.14 7.26 4.9 11.9 4.9 10.45 0 18.64-8.03 18.64-18.28s-8.19-18.16-18.64-18.16Zm0 30.66c-6.69 0-12.14-5.55-12.14-12.38s5.42-12.5 12.08-12.5c7.24 0 12.5 5.28 12.5 12.56s-5.35 12.32-12.44 12.32ZM189.63 69.4c-1.78 3.87-5.92 6.42-10.55 6.42-5.56 0-10.73-4.51-11.61-9.88h29.77v-1c0-.19.01-.37.03-.56.02-.23.03-.47.03-.7 0-10.04-8.34-18.52-18.22-18.52s-18.04 8.37-18.04 18.28 8.12 18.16 18.1 18.16c7.62 0 14.49-4.9 17.08-12.18l-6.6-.02Zm-22.03-9.24c1.41-5.48 5.99-9.22 11.49-9.22s10.16 3.66 11.65 9.22H167.6ZM231.83 46h-1v4.01c-2.93-3.11-7.14-4.85-11.9-4.85-10.45 0-18.64 7.98-18.64 18.16s8.19 18.28 18.64 18.28c4.64 0 8.92-1.78 11.9-4.86v4.08h6.2V46h-5.2Zm-12.9 29.82c-7.09 0-12.44-5.3-12.44-12.32s5.32-12.56 12.38-12.56 12.2 5.61 12.2 12.5-5.45 12.38-12.14 12.38ZM278.93 45.16c-4.52 0-8.21 1.85-11.01 5.51-2.57-3.56-6.44-5.51-11.07-5.51-3.11 0-5.88 1.03-7.94 2.89V46h-6.2v34.82h6.2v-20.2c0-6.15 2.89-9.68 7.94-9.68s7.94 3.53 7.94 9.68v20.2h6.2V60.68c0-6.1 2.97-9.74 7.94-9.74s7.94 3.51 7.94 9.62v20.26h6.2V60.14c0-8.96-5.68-14.98-14.14-14.98ZM46.51 0C26.75 0 9.47 10.57 0 26.36l7.45-.91c3.01-.94 6.06-1.67 9.19-2.12 1.81-3.79 3.06-7.2 4.96-10.18 2.33-3.65 5.19-3.74 8.44-.84.43.38.94.72 1.25 1.19 2.88 4.41 7.33 6.01 12.18 7.04 4.19.89 7.26 2.89 10.48 6.33.52.56 1.47.98 2.29 1.26 6.08 2.09 12.16 4.18 18.28 6.15 1.58.51 2.22 1.4 2.47 2.95.72 4.57-.87 8.29-4.18 11.31-4.05 3.7-9.04 5.64-14.15 7.36 0 0-19.83 5.03-25.28 8.93-11.69 8.36-18.02 20.09-21.42 31.09 2.63 2.18 5.48 4.12 8.49 5.78 5.53-20.37 24.18-35.41 46.28-35.41 1.83 0 3.68.1 5.49.31 1.22.14 2.1 1.24 1.96 2.46-.14 1.22-1.24 2.11-2.46 1.96-1.65-.19-3.32-.28-4.99-.28-20.36 0-37.49 14.06-42.21 32.97 3.84 1.7 7.91 2.98 12.15 3.75 3.09-13.74 15.39-24.04 30.06-24.04 1.91 0 3.82.18 5.68.52 1.21.23 2.01 1.39 1.78 2.6a2.227 2.227 0 0 1-2.6 1.78c-1.59-.3-3.23-.45-4.86-.45-12.42 0-22.85 8.63-25.63 20.21 1.78.18 3.58.27 5.4.27 29.93 0 54.2-24.26 54.2-54.19S76.44 0 46.51 0Z" />
        <path class="cls-1" d="M40.37 29.36c6.78 4.02 7.97 4.03 10.36.04-3.39-.01-6.47-.02-10.36-.04Z" />
    </g>
</svg>