<svg width="158" height="158" viewBox="0 0 158 158" fill="none" xmlns="http://www.w3.org/2000/svg">
    <mask id="mask0_101_15" style="mask-type:alpha" maskUnits="userSpaceOnUse" x="0" y="0" width="158" height="158">
        <rect width="158" height="158" fill="#D9D9D9" />
    </mask>
    <g mask="url(#mask0_101_15)">
        <path
            d="M73.7755 5.25853C46.9047 5.25853 23.3809 19.6395 10.4966 41.1225L20.6326 39.8844C24.7279 38.6055 28.8775 37.6123 33.136 37C35.5986 31.8436 37.2993 27.2041 39.8843 23.1497C43.0544 18.1837 46.9456 18.0613 51.3673 22.0068C51.9524 22.5238 52.6462 22.9864 53.068 23.6259C56.9864 29.6259 63.0408 31.8027 69.6394 33.2041C75.3401 34.415 79.517 37.1361 83.8979 41.8164C84.6054 42.5783 85.8979 43.1497 87.0136 43.5306C95.2857 46.3742 103.558 49.2177 111.884 51.898C114.034 52.5919 114.905 53.8027 115.245 55.9116C116.224 62.1293 114.061 67.1905 109.558 71.2993C104.048 76.3334 97.2585 78.9728 90.3061 81.313C90.3061 81.313 63.3265 88.1565 55.9115 93.4626C40.0068 104.837 31.3945 120.796 26.7687 135.762C30.3469 138.728 34.2245 141.367 38.3197 143.626C45.8435 115.912 71.2177 95.449 101.286 95.449C103.775 95.449 106.293 95.5851 108.755 95.8708C110.415 96.0613 111.612 97.5579 111.422 99.2177C111.231 100.878 109.735 102.088 108.075 101.884C105.83 101.626 103.558 101.503 101.286 101.503C73.585 101.503 50.2789 120.633 43.8571 146.361C49.0816 148.674 54.619 150.415 60.3877 151.463C64.5918 132.769 81.3265 118.755 101.286 118.755C103.884 118.755 106.483 119 109.014 119.463C110.66 119.776 111.748 121.354 111.435 123C111.122 124.646 109.544 125.735 107.898 125.422C105.735 125.014 103.503 124.81 101.286 124.81C84.3877 124.81 70.1973 136.551 66.4149 152.306C68.8367 152.551 71.2857 152.674 73.7619 152.674C114.483 152.674 147.49 119.667 147.49 78.9456C147.49 38.2245 114.483 5.21771 73.7619 5.21771L73.7755 5.25853Z"
            fill="#212936" />
        <path
            d="M65.4081 45.2177C74.6326 50.6871 76.2517 50.7007 79.5034 45.2721C74.8911 45.2585 70.7007 45.2449 65.4081 45.2177V45.2177Z"
            fill="#212936" />
    </g>
</svg>